<svg width="24" height="24" viewBox="0 0 24 24" fill="none" xmlns="http://www.w3.org/2000/svg">
<path d="M13.8241 5.1481C13.8241 5.11997 13.8148 5.02622 13.796 4.8856C13.7773 4.74497 13.7773 4.63247 13.796 4.55747C13.8148 4.48247 13.8335 4.36997 13.8429 4.22935C13.8616 4.08872 13.8991 4.00435 13.9648 3.96685C14.0304 3.93872 14.1335 3.9106 14.2648 3.89185H18.7648C19.8898 3.89185 20.8554 4.26685 21.6523 5.00747C22.4491 5.7481 22.8429 6.6481 22.8429 7.70747V16.9981C22.8429 18.0575 22.4491 18.9575 21.6523 19.6981C20.8554 20.4387 19.8991 20.8137 18.7648 20.8137H14.2648C14.1335 20.8137 14.021 20.7762 13.9366 20.6918C13.8523 20.6168 13.8148 20.5043 13.8148 20.3825C13.8148 20.3543 13.8054 20.2606 13.7866 20.12C13.7679 19.9793 13.7679 19.8575 13.7866 19.7637C13.8054 19.67 13.8241 19.5668 13.8335 19.4543C13.8523 19.3418 13.8898 19.2575 13.9554 19.1918C14.021 19.1262 14.1241 19.1075 14.2554 19.1262H18.7554C19.3741 19.1262 19.9085 18.9106 20.3491 18.4887C20.7898 18.0575 21.0148 17.57 21.0335 16.9981V7.70747C21.0335 7.12622 20.8085 6.61997 20.3491 6.21685C19.8898 5.80435 19.3648 5.58872 18.7554 5.57935H14.3585C14.3585 5.57935 14.3116 5.57935 14.2085 5.57935C14.1054 5.57935 14.0491 5.5606 14.0304 5.53247C14.0116 5.50435 13.9835 5.47622 13.9273 5.45747C13.8804 5.43872 13.8429 5.40122 13.8241 5.3356C13.8335 5.27935 13.8241 5.21372 13.8241 5.1481ZM0.727271 12.3575C0.727271 12.1325 0.821021 11.9356 1.00852 11.7668L8.6679 4.55747C8.8554 4.3981 9.06165 4.3231 9.29602 4.3231C9.5304 4.3231 9.74602 4.3981 9.92415 4.55747C10.1116 4.71685 10.2054 4.91372 10.2054 5.1481V8.96372H16.5335C16.7679 8.96372 16.9835 9.0481 17.1616 9.22622C17.3491 9.40435 17.4429 9.60122 17.4429 9.81685V14.8981C17.4429 15.1325 17.3491 15.3293 17.1616 15.4887C16.9741 15.6481 16.7679 15.7325 16.5335 15.7512H10.2148V19.5575C10.2148 19.7825 10.121 19.9793 9.93352 20.1481C9.74602 20.3262 9.53977 20.4012 9.3054 20.3825C9.07102 20.3637 8.8554 20.2887 8.67727 20.1481L1.0179 12.9387C0.821021 12.7887 0.727271 12.5918 0.727271 12.3575Z" fill="#E9E9E9"/>
</svg>
