<svg width="24" height="24" viewBox="0 0 24 24" fill="none" xmlns="http://www.w3.org/2000/svg">
<path d="M12.0212 1.01768C10.8395 1.11288 9.75546 1.54129 8.91082 2.2471C8.44924 2.63283 8.13322 3.00215 7.86508 3.46995C7.46861 4.16263 7.30964 4.79129 7.33454 5.57096C7.34987 6.04861 7.42265 6.40808 7.58736 6.83484C8.14471 8.26944 9.52371 9.36754 11.2302 9.7385C12.6399 10.0454 14.1568 9.82221 15.3596 9.13446C15.6794 8.95062 15.871 8.81602 16.1678 8.55996C17.1465 7.71792 17.6732 6.62474 17.6713 5.43964C17.6694 4.71906 17.5066 4.11831 17.135 3.46831C16.4647 2.29962 15.191 1.42475 13.7163 1.12437C13.1762 1.01276 12.5537 0.973364 12.0212 1.01768Z" fill="#E9E9E9"/>
<path d="M11.935 10.2918C11.2781 10.3361 10.6479 10.4461 10.0197 10.6266C8.01249 11.2011 6.20447 12.5011 4.93847 14.282C3.79504 15.8906 3.14576 17.752 3.01935 19.7857C2.98871 20.2748 2.99446 20.4784 3.03659 20.5604C3.33729 21.1251 5.42112 21.6208 8.50664 21.8604C9.87989 21.9671 10.8318 22.0016 12.5 21.9999C13.7737 21.9999 14.2065 21.9917 15.191 21.9441C16.5336 21.8785 17.8973 21.7488 18.9641 21.583C20.6878 21.3155 21.7546 20.9511 21.9634 20.5604C22.0055 20.4784 22.0113 20.2748 21.9806 19.7857C21.837 17.4893 21.0134 15.3834 19.5942 13.6764C17.7804 11.4982 15.1737 10.2573 12.454 10.2753C12.274 10.277 12.0403 10.2836 11.935 10.2918Z" fill="#E9E9E9"/>
</svg>
