<svg width="20" height="20" viewBox="0 0 20 20" fill="none" xmlns="http://www.w3.org/2000/svg">
<path d="M10.0177 0.848114C9.03294 0.927449 8.12957 1.28446 7.4257 1.87263C7.04105 2.19407 6.7777 2.50184 6.55425 2.89167C6.22386 3.4689 6.09139 3.99278 6.11214 4.64251C6.12491 5.04055 6.18556 5.34011 6.32282 5.69575C6.78728 6.89124 7.93645 7.80633 9.35854 8.11546C10.5332 8.37125 11.7973 8.18522 12.7997 7.61209C13.0662 7.4589 13.2258 7.34673 13.4732 7.13335C14.2888 6.43165 14.7277 5.52066 14.7261 4.53308C14.7245 3.9326 14.5889 3.43197 14.2792 2.8903C13.7206 1.9164 12.6592 1.18734 11.4302 0.937024C10.9801 0.844011 10.4614 0.811183 10.0177 0.848114Z" fill="#6C6C6C"/>
<path d="M9.94583 8.57646C9.39837 8.6134 8.87327 8.70504 8.34976 8.8555C6.67708 9.33425 5.17039 10.4176 4.11539 11.9017C3.16254 13.2422 2.62147 14.7933 2.51613 16.4881C2.49059 16.8957 2.49538 17.0653 2.53049 17.1337C2.78108 17.6042 4.5176 18.0173 7.08886 18.217C8.23324 18.3059 9.02649 18.3346 10.4167 18.3333C11.4781 18.3333 11.8388 18.3264 12.6591 18.2868C13.778 18.2321 14.9144 18.124 15.8034 17.9859C17.2399 17.7629 18.1289 17.4592 18.3028 17.1337C18.338 17.0653 18.3427 16.8957 18.3172 16.4881C18.1975 14.5745 17.5112 12.8195 16.3285 11.397C14.817 9.58183 12.6448 8.54774 10.3784 8.56279C10.2283 8.56415 10.0336 8.56962 9.94583 8.57646Z" fill="#6C6C6C"/>
</svg>
