<svg width="20" height="20" viewBox="0 0 20 20" fill="none" xmlns="http://www.w3.org/2000/svg">
<g clip-path="url(#clip0_194_19)">
<path d="M19.651 8.82273L17.184 8.41953C17.0396 7.9245 16.8421 7.44868 16.595 6.99831L18.0351 4.946C18.1516 4.78029 18.1315 4.55448 17.9884 4.4109L16.365 2.7885C16.2201 2.64408 15.9922 2.6253 15.8261 2.74509L13.8045 4.19803C13.3499 3.94676 12.8699 3.74725 12.3719 3.60241L11.9415 1.14565C11.9064 0.946136 11.7332 0.800049 11.5303 0.800049H9.23449C9.02995 0.800049 8.85546 0.948223 8.82249 1.15024L8.42343 3.59365C7.92251 3.73765 7.44164 3.93507 6.98873 4.18301L4.97255 2.74301C4.806 2.62405 4.57934 2.64325 4.43449 2.78725L2.81195 4.40965C2.66877 4.55281 2.64873 4.77821 2.7652 4.94391L4.18403 6.97368C3.93149 7.43073 3.73029 7.91448 3.58377 8.41786L1.14975 8.82314C0.948551 8.85654 0.800781 9.03101 0.800781 9.23469V11.5303C0.800781 11.7328 0.946046 11.906 1.14516 11.9415L3.57918 12.3731C3.72486 12.8752 3.92606 13.3589 4.17944 13.8172L2.74307 15.8261C2.62452 15.9918 2.64331 16.2193 2.78732 16.3642L4.41028 17.9882C4.55346 18.1314 4.77928 18.1514 4.945 18.035L6.97787 16.6112C7.43412 16.8621 7.91625 17.0612 8.41591 17.2056L8.82332 19.6519C8.8563 19.8527 9.03037 20 9.23449 20H11.5303C11.7328 20 11.906 19.8548 11.9411 19.6557L12.3773 17.1973C12.8778 17.0499 13.3574 16.8496 13.8091 16.5983L15.8566 18.0346C16.0227 18.1518 16.2481 18.1314 16.3917 17.9882L18.0147 16.3642C18.1591 16.2193 18.1779 15.991 18.0581 15.8249L16.5979 13.7976C16.8454 13.3468 17.0421 12.8702 17.1852 12.3751L19.6556 11.9415C19.8555 11.9064 20.0008 11.7328 20.0008 11.5303V9.23469C20.0012 9.03017 19.853 8.8557 19.651 8.82273ZM10.4008 13.3218C8.78701 13.3218 7.47879 12.0137 7.47879 10.4C7.47879 8.78641 8.78701 7.47831 10.4008 7.47831C12.0146 7.47831 13.3228 8.78641 13.3228 10.4C13.3228 12.0137 12.0146 13.3218 10.4008 13.3218Z" fill="#E9E9E9"/>
</g>
<defs>
<clipPath id="clip0_194_19">
<rect width="20" height="20" fill="white"/>
</clipPath>
</defs>
</svg>
