<svg width="20" height="20" viewBox="0 0 20 20" fill="none" xmlns="http://www.w3.org/2000/svg">
<g clip-path="url(#clip0_145_391)">
<path d="M19.651 8.82267L17.184 8.41947C17.0396 7.92444 16.8421 7.44861 16.595 6.99825L18.0351 4.94594C18.1516 4.78023 18.1315 4.55442 17.9884 4.41084L16.365 2.78844C16.2201 2.64402 15.9922 2.62524 15.8261 2.74503L13.8045 4.19797C13.3499 3.9467 12.8699 3.74719 12.3719 3.60235L11.9415 1.14559C11.9064 0.946075 11.7332 0.799988 11.5303 0.799988H9.23449C9.02995 0.799988 8.85546 0.948162 8.82249 1.15018L8.42343 3.59359C7.92251 3.73759 7.44164 3.93501 6.98873 4.18294L4.97255 2.74294C4.806 2.62399 4.57934 2.64319 4.43449 2.78719L2.81195 4.40959C2.66877 4.55275 2.64873 4.77814 2.7652 4.94385L4.18403 6.97362C3.93149 7.43067 3.73029 7.91442 3.58377 8.4178L1.14975 8.82308C0.948551 8.85647 0.800781 9.03094 0.800781 9.23463V11.5303C0.800781 11.7327 0.946046 11.9059 1.14516 11.9414L3.57918 12.373C3.72486 12.8751 3.92606 13.3589 4.17944 13.8172L2.74307 15.8261C2.62452 15.9918 2.64331 16.2193 2.78732 16.3641L4.41028 17.9882C4.55346 18.1313 4.77928 18.1514 4.945 18.0349L6.97787 16.6112C7.43412 16.862 7.91625 17.0611 8.41591 17.2056L8.82332 19.6519C8.8563 19.8526 9.03037 20 9.23449 20H11.5303C11.7328 20 11.906 19.8547 11.9411 19.6556L12.3773 17.1972C12.8778 17.0499 13.3574 16.8495 13.8091 16.5982L15.8566 18.0345C16.0227 18.1518 16.2481 18.1313 16.3917 17.9882L18.0147 16.3641C18.1591 16.2193 18.1779 15.9909 18.0581 15.8248L16.5979 13.7976C16.8454 13.3468 17.0421 12.8701 17.1852 12.3751L19.6556 11.9414C19.8555 11.9064 20.0008 11.7327 20.0008 11.5303V9.23463C20.0012 9.03011 19.853 8.85564 19.651 8.82267ZM10.4008 13.3217C8.78701 13.3217 7.47879 12.0136 7.47879 10.4C7.47879 8.78635 8.78701 7.47825 10.4008 7.47825C12.0146 7.47825 13.3228 8.78635 13.3228 10.4C13.3228 12.0136 12.0146 13.3217 10.4008 13.3217Z" fill="#6C6C6C"/>
</g>
<defs>
<clipPath id="clip0_145_391">
<rect width="20" height="20" fill="white"/>
</clipPath>
</defs>
</svg>
