<svg width="23" height="17" viewBox="0 0 23 17" fill="none" xmlns="http://www.w3.org/2000/svg">
<path d="M13.0969 1.25625C13.0969 1.22813 13.0875 1.13438 13.0688 0.993752C13.05 0.853127 13.05 0.740627 13.0688 0.665627C13.0875 0.590627 13.1063 0.478127 13.1157 0.337502C13.1344 0.196877 13.1719 0.112501 13.2375 0.0750013C13.3032 0.0468763 13.4063 0.018751 13.5375 1.00862e-06H18.0375C19.1625 1.00862e-06 20.1282 0.375002 20.925 1.11563C21.7219 1.85625 22.1157 2.75625 22.1157 3.81563V13.1063C22.1157 14.1656 21.7219 15.0656 20.925 15.8062C20.1282 16.5469 19.1719 16.9219 18.0375 16.9219H13.5375C13.4063 16.9219 13.2938 16.8844 13.2094 16.8C13.125 16.725 13.0875 16.6125 13.0875 16.4906C13.0875 16.4625 13.0782 16.3687 13.0594 16.2281C13.0407 16.0875 13.0407 15.9656 13.0594 15.8719C13.0782 15.7781 13.0969 15.675 13.1063 15.5625C13.125 15.45 13.1625 15.3656 13.2282 15.3C13.2938 15.2344 13.3969 15.2156 13.5282 15.2344H18.0282C18.6469 15.2344 19.1813 15.0188 19.6219 14.5969C20.0625 14.1656 20.2875 13.6781 20.3063 13.1063V3.81563C20.3063 3.23438 20.0813 2.72813 19.6219 2.325C19.1625 1.9125 18.6375 1.69688 18.0282 1.6875H13.6313C13.6313 1.6875 13.5844 1.6875 13.4813 1.6875C13.3782 1.6875 13.3219 1.66875 13.3032 1.64063C13.2844 1.6125 13.2563 1.58438 13.2 1.56563C13.1532 1.54688 13.1157 1.50938 13.0969 1.44375C13.1063 1.3875 13.0969 1.32188 13.0969 1.25625ZM3.67539e-05 8.46563C3.67539e-05 8.24063 0.0937868 8.04375 0.281287 7.875L7.94066 0.665627C8.12816 0.506252 8.33441 0.431252 8.56879 0.431252C8.80316 0.431252 9.01879 0.506252 9.19691 0.665627C9.38441 0.825002 9.47816 1.02188 9.47816 1.25625V5.07188H15.8063C16.0407 5.07188 16.2563 5.15625 16.4344 5.33438C16.6219 5.5125 16.7157 5.70938 16.7157 5.925V11.0063C16.7157 11.2406 16.6219 11.4375 16.4344 11.5969C16.2469 11.7563 16.0407 11.8406 15.8063 11.8594H9.48754V15.6656C9.48754 15.8906 9.39379 16.0875 9.20629 16.2562C9.01879 16.4344 8.81254 16.5094 8.57816 16.4906C8.34379 16.4719 8.12816 16.3969 7.95004 16.2562L0.290662 9.04688C0.0937873 8.89688 3.67539e-05 8.7 3.67539e-05 8.46563Z" fill="#6C6C6C"/>
</svg>
