<svg width="20" height="20" viewBox="0 0 20 20" fill="none" xmlns="http://www.w3.org/2000/svg">
<g clip-path="url(#clip0_194_15)">
<path d="M10 0.420288C9.91301 0.420288 9.82635 0.449113 9.75235 0.507613L0.552351 8.00856C0.380351 8.15063 0.348382 8.41312 0.484382 8.59698C0.620382 8.77665 0.871664 8.81005 1.04766 8.66798L1.60001 8.21748V19.2024C1.60001 19.4323 1.78001 19.6203 2.00001 19.6203H7.60001V12.0989H12.4V19.6203H18C18.22 19.6203 18.4 19.4323 18.4 19.2024V8.21748L18.9524 8.66798C19.0284 8.72648 19.112 8.75612 19.2 8.75612C19.32 8.75612 19.4356 8.70144 19.5156 8.59698C19.6516 8.41312 19.6197 8.15063 19.4477 8.00856L10.2477 0.507613C10.1737 0.449113 10.087 0.420288 10 0.420288ZM14 2.07048V2.50955L16.4 4.46497V2.07048H14Z" fill="#E9E9E9"/>
</g>
<defs>
<clipPath id="clip0_194_15">
<rect width="20" height="20" fill="white"/>
</clipPath>
</defs>
</svg>
