<svg width="20" height="20" viewBox="0 0 20 20" fill="none" xmlns="http://www.w3.org/2000/svg">
<g clip-path="url(#clip0_145_376)">
<path d="M10 0.420319C9.91301 0.420319 9.82635 0.449144 9.75235 0.507643L0.552351 8.00859C0.380351 8.15066 0.348382 8.41315 0.484382 8.59701C0.620382 8.77668 0.871664 8.81008 1.04766 8.66801L1.60001 8.21751V19.2025C1.60001 19.4323 1.78001 19.6203 2.00001 19.6203H7.60001V12.099H12.4V19.6203H18C18.22 19.6203 18.4 19.4323 18.4 19.2025V8.21751L18.9524 8.66801C19.0284 8.72651 19.112 8.75615 19.2 8.75615C19.32 8.75615 19.4356 8.70147 19.5156 8.59701C19.6516 8.41315 19.6197 8.15066 19.4477 8.00859L10.2477 0.507643C10.1737 0.449144 10.087 0.420319 10 0.420319ZM14 2.07051V2.50958L16.4 4.465V2.07051H14Z" fill="#6C6C6C"/>
</g>
<defs>
<clipPath id="clip0_145_376">
<rect width="20" height="20" fill="white"/>
</clipPath>
</defs>
</svg>
