<svg width="30" height="30" viewBox="0 0 30 30" fill="none" xmlns="http://www.w3.org/2000/svg">
<path d="M14.971 0.00520231C14.9218 0.0141996 14.8725 0.0276955 14.8277 0.0411916C14.2947 0.162656 13.9185 0.644012 13.9319 1.19285V4.64782C13.9275 5.06169 14.1424 5.44858 14.5008 5.66001C14.8591 5.86695 15.298 5.86695 15.6563 5.66001C16.0146 5.44858 16.2296 5.06169 16.2251 4.64782V1.19285C16.2386 0.859948 16.1042 0.540543 15.8668 0.315609C15.625 0.0861781 15.298 -0.0262883 14.971 0.00520231ZM8.01978 1.87664C7.63908 1.93063 7.31212 2.17356 7.1464 2.51995C6.98068 2.86635 6.99859 3.27123 7.19566 3.60413L8.91556 6.62723C9.23357 7.18506 9.93675 7.3785 10.4921 7.0591C11.0475 6.73969 11.2401 6.0334 10.9221 5.47557L9.20221 2.45247C8.96931 2.0296 8.49455 1.80017 8.01978 1.87664ZM21.7431 1.87664C21.4072 1.93963 21.1206 2.15106 20.9549 2.45247L19.235 5.47557C18.917 6.0334 19.1095 6.73969 19.6649 7.0591C20.2203 7.3785 20.9235 7.18506 21.2415 6.62723L22.9614 3.60413C23.1809 3.23074 23.1719 2.76288 22.9345 2.39849C22.7016 2.0341 22.2806 1.83166 21.8506 1.87664C21.8148 1.87664 21.779 1.87664 21.7431 1.87664ZM26.9387 6.91514C26.9028 6.92414 26.867 6.93763 26.8312 6.95113C26.6923 6.97362 26.558 7.02311 26.437 7.09509L23.4272 8.82257C22.8718 9.14198 22.6792 9.84826 22.9972 10.4061C23.3152 10.9639 24.0184 11.1574 24.5738 10.838L27.5836 9.11048C28.1211 8.88105 28.4033 8.28723 28.2376 7.7249C28.0718 7.16257 27.512 6.81167 26.9387 6.91514ZM2.96758 6.95113C2.47042 7.01411 2.07628 7.392 1.98222 7.88685C1.89264 8.3817 2.13451 8.87655 2.57344 9.11048L5.58326 10.838C6.13864 11.1574 6.84183 10.9639 7.15983 10.4061C7.47784 9.84826 7.28524 9.14198 6.72986 8.82257L3.72004 7.09509C3.49161 6.96013 3.22736 6.91064 2.96758 6.95113ZM15.0785 6.95113C10.6444 6.95113 7.05234 10.5591 7.05234 15.0127C7.05234 19.4664 10.6444 23.0743 15.0785 23.0743C19.5126 23.0743 23.1047 19.4664 23.1047 15.0127C23.1047 10.5591 19.5126 6.95113 15.0785 6.95113ZM15.0785 9.25444C18.2406 9.25444 20.8115 11.8367 20.8115 15.0127C20.8115 18.1888 18.2406 20.771 15.0785 20.771C11.9164 20.771 9.34554 18.1888 9.34554 15.0127C9.34554 11.8367 11.9164 9.25444 15.0785 9.25444ZM0.996863 13.8611C0.365338 13.951 -0.0780732 14.5404 0.0115048 15.1747C0.101083 15.809 0.687819 16.2544 1.31934 16.1644H4.75914C5.1712 16.1689 5.55639 15.9529 5.76689 15.5931C5.97292 15.2332 5.97292 14.7923 5.76689 14.4324C5.55639 14.0725 5.1712 13.8566 4.75914 13.8611H1.31934C1.28351 13.8611 1.24768 13.8611 1.21185 13.8611C1.17602 13.8611 1.14019 13.8611 1.10436 13.8611C1.06853 13.8611 1.03269 13.8611 0.996863 13.8611ZM25.0754 13.8611C24.4439 13.951 24.0005 14.5404 24.0901 15.1747C24.1797 15.809 24.7664 16.2544 25.3979 16.1644H28.8377C29.2498 16.1689 29.635 15.9529 29.8455 15.5931C30.0515 15.2332 30.0515 14.7923 29.8455 14.4324C29.635 14.0725 29.2498 13.8566 28.8377 13.8611H25.3979C25.3621 13.8611 25.3263 13.8611 25.2904 13.8611C25.2546 13.8611 25.2188 13.8611 25.1829 13.8611C25.1471 13.8611 25.1113 13.8611 25.0754 13.8611ZM6.0849 19.0075C6.04907 19.0165 6.01323 19.03 5.9774 19.0435C5.83856 19.066 5.70419 19.1155 5.58326 19.1875L2.57344 20.915C2.01805 21.2344 1.82546 21.9407 2.14346 22.4985C2.46146 23.0563 3.16465 23.2498 3.72004 22.9304L6.72986 21.2029C7.26733 20.9734 7.5495 20.3796 7.38378 19.8173C7.21806 19.255 6.6582 18.9041 6.0849 19.0075ZM23.8214 19.0435C23.3242 19.1065 22.9301 19.4844 22.836 19.9792C22.7464 20.4741 22.9883 20.9689 23.4272 21.2029L26.437 22.9304C26.9924 23.2498 27.6956 23.0563 28.0136 22.4985C28.3316 21.9407 28.139 21.2344 27.5836 20.915L24.5738 19.1875C24.3454 19.0525 24.0811 19.003 23.8214 19.0435ZM9.70385 22.8224C9.36793 22.8854 9.08128 23.0968 8.91556 23.3982L7.19566 26.4213C6.87766 26.9792 7.07026 27.6854 7.62564 28.0048C8.18102 28.3242 8.88421 28.1308 9.20221 27.573L10.9221 24.5499C11.1416 24.1765 11.1326 23.7086 10.8952 23.3442C10.6623 22.9798 10.2413 22.7774 9.81134 22.8224C9.77551 22.8224 9.73968 22.8224 9.70385 22.8224ZM20.0591 22.8224C19.6784 22.8764 19.3514 23.1193 19.1857 23.4657C19.02 23.8121 19.0379 24.217 19.235 24.5499L20.9549 27.573C21.2729 28.1308 21.976 28.3242 22.5314 28.0048C23.0868 27.6854 23.2794 26.9792 22.9614 26.4213L21.2415 23.3982C21.0086 22.9753 20.5338 22.7459 20.0591 22.8224ZM14.971 24.19C14.9218 24.199 14.8725 24.2125 14.8277 24.226C14.2947 24.3474 13.9185 24.8288 13.9319 25.3776V28.8326C13.9275 29.2465 14.1424 29.6334 14.5008 29.8448C14.8591 30.0517 15.298 30.0517 15.6563 29.8448C16.0146 29.6334 16.2296 29.2465 16.2251 28.8326V25.3776C16.2386 25.0447 16.1042 24.7253 15.8668 24.5004C15.625 24.271 15.298 24.1585 14.971 24.19Z" fill="#FFBB11"/>
</svg>
