<svg width="19" height="19" viewBox="0 0 19 19" fill="none" xmlns="http://www.w3.org/2000/svg">
<g clip-path="url(#clip0_126_154)">
<path fill-rule="evenodd" clip-rule="evenodd" d="M9.49998 6.70588C10.999 6.70588 12.2143 5.70511 12.2143 4.47059C12.2143 3.23607 10.999 2.23529 9.49998 2.23529C8.00092 2.23529 6.7857 3.23607 6.7857 4.47059C6.7857 5.70511 8.00092 6.70588 9.49998 6.70588ZM9.49998 8.94118C12.4981 8.94118 14.9286 6.93963 14.9286 4.47059C14.9286 2.00155 12.4981 0 9.49998 0C6.50186 0 4.07141 2.00155 4.07141 4.47059C4.07141 6.93963 6.50186 8.94118 9.49998 8.94118Z" fill="#6D6D6D"/>
<path fill-rule="evenodd" clip-rule="evenodd" d="M9.5 12.2941C5.75236 12.2941 2.71429 14.7961 2.71429 17.8824C2.71429 18.4996 2.10667 19 1.35714 19C0.607613 19 0 18.4996 0 17.8824C0 13.5615 4.2533 10.0588 9.5 10.0588C14.7467 10.0588 19 13.5615 19 17.8824C19 18.4996 18.3924 19 17.6429 19C16.8933 19 16.2857 18.4996 16.2857 17.8824C16.2857 14.7961 13.2476 12.2941 9.5 12.2941Z" fill="#6D6D6D"/>
</g>
<defs>
<clipPath id="clip0_126_154">
<rect width="19" height="19" fill="white"/>
</clipPath>
</defs>
</svg>