<svg width="40" height="41" viewBox="0 0 40 41" fill="none" xmlns="http://www.w3.org/2000/svg">
<path d="M20 0C8.95191 0 0 8.99443 0 20.095C0 31.1956 8.95191 40.19 20 40.19C31.0481 40.19 40 31.1956 40 20.095C40 8.99443 31.0481 0 20 0ZM31.3934 22.1764C31.3934 22.8578 30.8385 23.4153 30.1604 23.4153H24.5377C23.8595 23.4153 23.3046 23.9728 23.3046 24.6542V30.3036C23.3046 30.985 22.7498 31.5425 22.0716 31.5425H17.9285C17.2504 31.5425 16.6955 30.985 16.6955 30.3036V24.6542C16.6955 23.9728 16.1406 23.4153 15.4625 23.4153H9.22318C8.88409 23.4153 8.60666 23.1365 8.60666 22.7958V18.0137C8.60666 17.3323 9.16153 16.7748 9.8397 16.7748H15.4625C16.1406 16.7748 16.6955 16.2173 16.6955 15.5359V9.8865C16.6955 9.20511 17.2504 8.6476 17.9285 8.6476H22.0716C22.7498 8.6476 23.3046 9.20511 23.3046 9.8865V15.5359C23.3046 16.2173 23.8595 16.7748 24.5377 16.7748H30.1604C30.8385 16.7748 31.3934 17.3323 31.3934 18.0137V22.1764Z" fill="#06B186"/>
</svg>
