<svg width="40" height="39" viewBox="0 0 40 39" fill="none" xmlns="http://www.w3.org/2000/svg">
<path d="M20 0C8.95191 0 0 8.56922 0 19.145C0 29.7208 8.95191 38.29 20 38.29C31.0481 38.29 40 29.7208 40 19.145C40 8.56922 31.0481 0 20 0ZM31.3934 21.128C31.3934 21.7771 30.8385 22.3083 30.1604 22.3083H24.5377C23.8595 22.3083 23.3046 22.8394 23.3046 23.4886V28.8709C23.3046 29.5201 22.7498 30.0513 22.0716 30.0513H17.9285C17.2504 30.0513 16.6955 29.5201 16.6955 28.8709V23.4886C16.6955 22.8394 16.1406 22.3083 15.4625 22.3083H9.22318C8.88409 22.3083 8.60666 22.0427 8.60666 21.7181V17.1621C8.60666 16.5129 9.16153 15.9818 9.8397 15.9818H15.4625C16.1406 15.9818 16.6955 15.4506 16.6955 14.8014V9.41912C16.6955 8.76993 17.2504 8.23878 17.9285 8.23878H22.0716C22.7498 8.23878 23.3046 8.76993 23.3046 9.41912V14.8014C23.3046 15.4506 23.8595 15.9818 24.5377 15.9818H30.1604C30.8385 15.9818 31.3934 16.5129 31.3934 17.1621V21.128Z" fill="white"/>
</svg>
