<svg width="17" height="18" viewBox="0 0 17 18" fill="none" xmlns="http://www.w3.org/2000/svg">
<g clip-path="url(#clip0_247_44)">
<path d="M3.49881 9C3.49881 8.75152 3.68907 8.57812 3.92381 8.57812H12.0276L8.89718 5.34684C8.72864 5.17366 8.72472 4.88166 8.88801 4.70355C8.97142 4.6125 9.08225 4.56328 9.19308 4.56328C9.29973 4.56328 9.40664 4.60378 9.48899 4.68858L13.3715 8.6779C13.4541 8.7627 13.5005 8.87864 13.5005 9.00042C13.5005 9.1222 13.4541 9.23843 13.3715 9.32323L9.48899 13.313C9.32111 13.4859 9.05177 13.4818 8.88801 13.3032C8.72472 13.125 8.72864 12.8258 8.89718 12.6527L12.0276 9.42188H3.92381C3.68907 9.42188 3.49881 9.24848 3.49881 9ZM0 9C0 13.9625 3.81318 18 8.5 18C13.1868 18 17 13.9625 17 9C17 4.03748 13.1868 0 8.5 0C3.81318 0 0 4.03748 0 9ZM0.85 9C0.85 4.53368 4.28181 0.9 8.5 0.9C12.7182 0.9 16.15 4.53368 16.15 9C16.15 13.4663 12.7182 17.1 8.5 17.1C4.28181 17.1 0.85 13.4663 0.85 9Z" fill="black"/>
</g>
<defs>
<clipPath id="clip0_247_44">
<rect width="17" height="18" fill="white"/>
</clipPath>
</defs>
</svg>
