<svg width="23" height="17" viewBox="0 0 23 17" fill="none" xmlns="http://www.w3.org/2000/svg">
<path d="M13.0968 1.25625C13.0968 1.22813 13.0875 1.13438 13.0687 0.993752C13.05 0.853127 13.05 0.740626 13.0687 0.665627C13.0875 0.590627 13.1062 0.478128 13.1156 0.337503C13.1344 0.196878 13.1718 0.112502 13.2375 0.0750018C13.3031 0.046876 13.4062 0.0187502 13.5375 1.00862e-06H18.0375C19.1625 1.00862e-06 20.1281 0.375001 20.925 1.11563C21.7219 1.85625 22.1156 2.75625 22.1156 3.81563V13.1063C22.1156 14.1656 21.7219 15.0656 20.925 15.8062C20.1281 16.5469 19.1719 16.9219 18.0375 16.9219H13.5375C13.4062 16.9219 13.2937 16.8844 13.2094 16.8C13.125 16.725 13.0875 16.6125 13.0875 16.4906C13.0875 16.4625 13.0781 16.3687 13.0594 16.2281C13.0406 16.0875 13.0406 15.9656 13.0594 15.8719C13.0781 15.7781 13.0969 15.675 13.1062 15.5625C13.125 15.45 13.1625 15.3656 13.2281 15.3C13.2937 15.2344 13.3969 15.2156 13.5281 15.2344H18.0281C18.6469 15.2344 19.1812 15.0188 19.6219 14.5969C20.0625 14.1656 20.2875 13.6781 20.3062 13.1063V3.81563C20.3062 3.23438 20.0812 2.72813 19.6219 2.325C19.1625 1.9125 18.6375 1.69688 18.0281 1.6875H13.6312C13.6312 1.6875 13.5844 1.6875 13.4812 1.6875C13.3781 1.6875 13.3219 1.66875 13.3031 1.64063C13.2843 1.6125 13.2562 1.58438 13.2 1.56563C13.1531 1.54688 13.1156 1.50938 13.0968 1.44375C13.1062 1.3875 13.0968 1.32188 13.0968 1.25625ZM-2.34773e-05 8.46563C-2.34773e-05 8.24063 0.0937265 8.04375 0.281227 7.875L7.9406 0.665627C8.1281 0.506251 8.33435 0.431253 8.56873 0.431253C8.8031 0.431253 9.01873 0.506251 9.19685 0.665627C9.38435 0.825002 9.4781 1.02188 9.4781 1.25625V5.07188H15.8062C16.0406 5.07188 16.2562 5.15625 16.4344 5.33438C16.6219 5.5125 16.7156 5.70938 16.7156 5.925V11.0063C16.7156 11.2406 16.6219 11.4375 16.4344 11.5969C16.2469 11.7563 16.0406 11.8406 15.8062 11.8594H9.48748V15.6656C9.48748 15.8906 9.39373 16.0875 9.20623 16.2562C9.01873 16.4344 8.81248 16.5094 8.5781 16.4906C8.34373 16.4719 8.1281 16.3969 7.94998 16.2562L0.290601 9.04688C0.0937265 8.89688 -2.34773e-05 8.7 -2.34773e-05 8.46563Z" fill="#E9E9E9"/>
</svg>
