
<svg width="12" height="11" viewBox="0 0 12 11" fill="none" xmlns="http://www.w3.org/2000/svg">
<path d="M10.0749 3.34656C10.0749 3.25167 10.1719 3.17468 10.2915 3.17468C10.4111 3.17468 10.5082 3.25202 10.5082 3.34656V9.94013C10.5082 10.2312 10.3574 10.4962 10.1155 10.6885C9.87357 10.8804 9.53907 11 9.17211 11H2.45554C2.08857 11 1.75365 10.8804 1.51214 10.6885C1.27021 10.4966 1.11945 10.2316 1.11945 9.94013V3.34656C1.11945 3.25167 1.21649 3.17468 1.3361 3.17468C1.45572 3.17468 1.55276 3.25202 1.55276 3.34656V9.94013C1.55276 10.1364 1.65479 10.3157 1.81819 10.4454C1.98158 10.575 2.20773 10.6563 2.45508 10.6563H9.17169C9.41905 10.6563 9.6447 10.575 9.80814 10.4454C9.97199 10.3154 10.074 10.1363 10.074 9.94048V3.34656H10.0749Z" fill="black"/>
<path d="M4.19785 9.49611C4.19785 9.59101 4.1008 9.66798 3.98118 9.66798C3.86156 9.66798 3.76451 9.59101 3.76451 9.49611V3.39096C3.76451 3.29607 3.86156 3.21909 3.98118 3.21909C4.1008 3.21909 4.19785 3.29607 4.19785 3.39096V9.49611Z" fill="black"/>
<path d="M6.03049 9.49611C6.03049 9.59101 5.93346 9.66798 5.81384 9.66798C5.69422 9.66798 5.59717 9.59101 5.59717 9.49611V3.39096C5.59717 3.29607 5.69422 3.21909 5.81384 3.21909C5.93346 3.21909 6.03049 3.29607 6.03049 3.39096V9.49611Z" fill="black"/>
<path d="M7.86355 9.49611C7.86355 9.59101 7.76654 9.66798 7.64692 9.66798C7.52728 9.66798 7.43025 9.59101 7.43025 9.49611V3.39096C7.43025 3.29607 7.52728 3.21909 7.64692 3.21909C7.76654 3.21909 7.86355 3.29607 7.86355 3.39096V9.49611Z" fill="black"/>
<path d="M4.07147 1.0599C4.07147 1.15479 3.97442 1.23178 3.8548 1.23178C3.7352 1.23178 3.63815 1.15479 3.63815 1.0599C3.63815 0.768061 3.78846 0.503098 4.03041 0.311173C4.27235 0.119233 4.60638 0 4.97425 0H6.65339C7.02082 0 7.35485 0.119595 7.59675 0.31152C7.83869 0.503445 7.98947 0.769131 7.98947 1.0599C7.98947 1.15479 7.89244 1.23178 7.77282 1.23178C7.6532 1.23178 7.55617 1.15479 7.55617 1.0599C7.55617 0.863677 7.45416 0.684276 7.29075 0.554659C7.12732 0.425026 6.9012 0.343743 6.65385 0.343743H4.97472C4.72691 0.343743 4.50122 0.424664 4.33737 0.554297C4.17348 0.684276 4.07147 0.863315 4.07147 1.0599Z" fill="black"/>
<path d="M0.776372 1.55402H10.8512C11.0638 1.55402 11.2579 1.62312 11.3988 1.73485L11.3997 1.73557C11.5405 1.84728 11.6276 2.00126 11.6276 2.16991V2.61393C11.6276 2.70881 11.5306 2.78579 11.4109 2.78579H11.4051H0.216669C0.0970489 2.78579 0 2.70881 0 2.61393V2.60963V2.16991C0 2.00162 0.0871122 1.84728 0.227955 1.73557L0.228867 1.73485C0.36969 1.62314 0.564225 1.55402 0.776372 1.55402ZM10.8513 1.89777H0.776372C0.68204 1.89777 0.595821 1.92822 0.534434 1.97726L0.533522 1.97799C0.471679 2.02667 0.433319 2.09472 0.433319 2.16991V2.44205H11.1938V2.16991C11.1938 2.09508 11.1555 2.02668 11.0937 1.97799L11.0927 1.97726C11.0314 1.92822 10.9456 1.89777 10.8513 1.89777Z" fill="black"/>
</svg>
