<svg width="40" height="40" viewBox="0 0 40 40" fill="none" xmlns="http://www.w3.org/2000/svg">
<path d="M19.9792 1.3151C19.626 1.32062 19.2895 1.46604 19.0434 1.71943C18.7973 1.97282 18.6618 2.31349 18.6667 2.66667V6.66667C18.6642 6.84335 18.6968 7.01877 18.7627 7.18272C18.8286 7.34668 18.9264 7.49591 19.0505 7.62174C19.1745 7.74756 19.3223 7.84748 19.4854 7.91567C19.6484 7.98387 19.8233 8.01899 20 8.01899C20.1767 8.01899 20.3516 7.98387 20.5147 7.91567C20.6777 7.84748 20.8255 7.74756 20.9495 7.62174C21.0736 7.49591 21.1714 7.34668 21.2373 7.18272C21.3032 7.01877 21.3358 6.84335 21.3333 6.66667V2.66667C21.3358 2.48828 21.3024 2.31122 21.2352 2.14596C21.168 1.98071 21.0683 1.83063 20.942 1.7046C20.8157 1.57857 20.6654 1.47916 20.5001 1.41226C20.3347 1.34535 20.1575 1.31232 19.9792 1.3151ZM7.72917 6.39844C7.46415 6.39902 7.20531 6.47857 6.9857 6.62692C6.76609 6.77527 6.59566 6.98569 6.49617 7.23133C6.39669 7.47698 6.37265 7.74669 6.42714 8.00605C6.48163 8.26542 6.61216 8.50266 6.80209 8.6875L9.63021 11.5156C9.75307 11.6436 9.90023 11.7457 10.0631 11.8161C10.2259 11.8865 10.4011 11.9237 10.5785 11.9255C10.7559 11.9273 10.9319 11.8937 11.0961 11.8266C11.2604 11.7596 11.4096 11.6604 11.535 11.535C11.6604 11.4096 11.7596 11.2604 11.8266 11.0961C11.8937 10.9319 11.9273 10.7559 11.9255 10.5785C11.9237 10.4011 11.8865 10.2259 11.8161 10.0631C11.7458 9.90023 11.6436 9.75307 11.5156 9.63021L8.6875 6.80208C8.56294 6.67404 8.41393 6.57233 8.2493 6.50299C8.08468 6.43366 7.9078 6.3981 7.72917 6.39844ZM32.2292 6.39844C31.8828 6.40876 31.554 6.55353 31.3125 6.80208L28.4844 9.63021C28.3564 9.75307 28.2543 9.90023 28.1839 10.0631C28.1135 10.2259 28.0763 10.4011 28.0745 10.5785C28.0727 10.7559 28.1063 10.9319 28.1734 11.0961C28.2404 11.2603 28.3396 11.4095 28.465 11.535C28.5905 11.6604 28.7397 11.7596 28.9039 11.8266C29.0681 11.8937 29.2441 11.9273 29.4215 11.9255C29.5989 11.9237 29.7741 11.8865 29.9369 11.8161C30.0998 11.7457 30.2469 11.6436 30.3698 11.5156L33.1979 8.6875C33.3906 8.50022 33.5222 8.2591 33.5755 7.99574C33.6287 7.73238 33.6012 7.45906 33.4965 7.21162C33.3918 6.96417 33.2147 6.75413 32.9886 6.60902C32.7625 6.46392 32.4977 6.39052 32.2292 6.39844ZM20 10.6667C17.5246 10.6667 15.1507 11.65 13.4003 13.4003C11.65 15.1507 10.6667 17.5246 10.6667 20C10.6667 22.4754 11.65 24.8493 13.4003 26.5997C15.1507 28.35 17.5246 29.3333 20 29.3333C22.4754 29.3333 24.8493 28.35 26.5997 26.5997C28.35 24.8493 29.3333 22.4754 29.3333 20C29.3333 17.5246 28.35 15.1507 26.5997 13.4003C24.8493 11.65 22.4754 10.6667 20 10.6667ZM2.66667 18.6667C2.48999 18.6642 2.31457 18.6968 2.15061 18.7627C1.98665 18.8286 1.83743 18.9264 1.7116 19.0505C1.58577 19.1745 1.48586 19.3223 1.41766 19.4854C1.34947 19.6484 1.31435 19.8233 1.31435 20C1.31435 20.1767 1.34947 20.3516 1.41766 20.5146C1.48586 20.6777 1.58577 20.8255 1.7116 20.9495C1.83743 21.0736 1.98665 21.1714 2.15061 21.2373C2.31457 21.3032 2.48999 21.3358 2.66667 21.3333H6.66667C6.84335 21.3358 7.01877 21.3032 7.18273 21.2373C7.34668 21.1714 7.49591 21.0736 7.62174 20.9495C7.74756 20.8255 7.84748 20.6777 7.91568 20.5146C7.98387 20.3516 8.01899 20.1767 8.01899 20C8.01899 19.8233 7.98387 19.6484 7.91568 19.4854C7.84748 19.3223 7.74756 19.1745 7.62174 19.0505C7.49591 18.9264 7.34668 18.8286 7.18273 18.7627C7.01877 18.6968 6.84335 18.6642 6.66667 18.6667H2.66667ZM33.3333 18.6667C33.1567 18.6642 32.9812 18.6968 32.8173 18.7627C32.6533 18.8286 32.5041 18.9264 32.3783 19.0505C32.2524 19.1745 32.1525 19.3223 32.0843 19.4854C32.0161 19.6484 31.981 19.8233 31.981 20C31.981 20.1767 32.0161 20.3516 32.0843 20.5146C32.1525 20.6777 32.2524 20.8255 32.3783 20.9495C32.5041 21.0736 32.6533 21.1714 32.8173 21.2373C32.9812 21.3032 33.1567 21.3358 33.3333 21.3333H37.3333C37.51 21.3358 37.6854 21.3032 37.8494 21.2373C38.0133 21.1714 38.1626 21.0736 38.2884 20.9495C38.4142 20.8255 38.5141 20.6777 38.5823 20.5146C38.6505 20.3516 38.6857 20.1767 38.6857 20C38.6857 19.8233 38.6505 19.6484 38.5823 19.4854C38.5141 19.3223 38.4142 19.1745 38.2884 19.0505C38.1626 18.9264 38.0133 18.8286 37.8494 18.7627C37.6854 18.6968 37.51 18.6642 37.3333 18.6667H33.3333ZM10.5469 28.0807C10.2005 28.0911 9.87171 28.2358 9.63021 28.4844L6.80209 31.3125C6.67413 31.4354 6.57196 31.5825 6.50159 31.7454C6.43121 31.9082 6.39403 32.0834 6.39223 32.2608C6.39043 32.4382 6.42404 32.6142 6.49109 32.7784C6.55814 32.9426 6.65729 33.0918 6.78272 33.2173C6.90816 33.3427 7.05737 33.4419 7.2216 33.5089C7.38583 33.576 7.5618 33.6096 7.73918 33.6078C7.91657 33.606 8.09181 33.5688 8.25465 33.4984C8.41748 33.428 8.56464 33.3259 8.6875 33.1979L11.5156 30.3698C11.7083 30.1825 11.8399 29.9414 11.8932 29.678C11.9465 29.4147 11.9189 29.1414 11.8142 28.8939C11.7095 28.6465 11.5325 28.4364 11.3063 28.2913C11.0802 28.1462 10.8155 28.0728 10.5469 28.0807ZM29.4141 28.0807C29.1488 28.0808 28.8896 28.16 28.6696 28.3081C28.4496 28.4563 28.2788 28.6667 28.179 28.9124C28.0791 29.1582 28.0549 29.4281 28.1093 29.6877C28.1637 29.9473 28.2943 30.1848 28.4844 30.3698L31.3125 33.1979C31.4354 33.3259 31.5825 33.428 31.7454 33.4984C31.9082 33.5688 32.0834 33.606 32.2608 33.6078C32.4382 33.6096 32.6142 33.576 32.7784 33.5089C32.9426 33.4419 33.0918 33.3427 33.2173 33.2173C33.3427 33.0918 33.4419 32.9426 33.5089 32.7784C33.576 32.6142 33.6096 32.4382 33.6078 32.2608C33.606 32.0834 33.5688 31.9082 33.4984 31.7454C33.428 31.5825 33.3259 31.4354 33.1979 31.3125L30.3698 28.4844C30.2455 28.3566 30.0969 28.2551 29.9328 28.1858C29.7686 28.1165 29.5923 28.0807 29.4141 28.0807ZM19.9792 31.9818C19.626 31.9873 19.2895 32.1327 19.0434 32.3861C18.7973 32.6395 18.6618 32.9802 18.6667 33.3333V37.3333C18.6642 37.51 18.6968 37.6854 18.7627 37.8494C18.8286 38.0133 18.9264 38.1626 19.0505 38.2884C19.1745 38.4142 19.3223 38.5141 19.4854 38.5823C19.6484 38.6505 19.8233 38.6857 20 38.6857C20.1767 38.6857 20.3516 38.6505 20.5147 38.5823C20.6777 38.5141 20.8255 38.4142 20.9495 38.2884C21.0736 38.1626 21.1714 38.0133 21.2373 37.8494C21.3032 37.6854 21.3358 37.51 21.3333 37.3333V33.3333C21.3358 33.1549 21.3024 32.9779 21.2352 32.8126C21.168 32.6474 21.0683 32.4973 20.942 32.3713C20.8157 32.2452 20.6654 32.1458 20.5001 32.0789C20.3347 32.012 20.1575 31.979 19.9792 31.9818Z" fill="#FAB005"/>
</svg>
