<svg width="37" height="37" viewBox="0 0 37 37" fill="none" xmlns="http://www.w3.org/2000/svg">
<path d="M18.5001 35.7667C28.0362 35.7667 35.7667 28.0361 35.7667 18.5C35.7667 8.96389 28.0362 1.23334 18.5001 1.23334C8.96395 1.23334 1.2334 8.96389 1.2334 18.5C1.2334 28.0361 8.96395 35.7667 18.5001 35.7667Z" fill="#8828C9"/>
<path d="M18.4999 20.35C21.9057 20.35 24.6666 17.5891 24.6666 14.1833C24.6666 10.7776 21.9057 8.01666 18.4999 8.01666C15.0942 8.01666 12.3333 10.7776 12.3333 14.1833C12.3333 17.5891 15.0942 20.35 18.4999 20.35Z" fill="white"/>
<mask id="mask0_194_44" style="mask-type:luminance" maskUnits="userSpaceOnUse" x="3" y="3" width="31" height="31">
<path d="M18.4999 33.9167C27.0143 33.9167 33.9166 27.0144 33.9166 18.5C33.9166 9.98561 27.0143 3.08333 18.4999 3.08333C9.98553 3.08333 3.08325 9.98561 3.08325 18.5C3.08325 27.0144 9.98553 33.9167 18.4999 33.9167Z" fill="white"/>
</mask>
<g mask="url(#mask0_194_44)">
<path d="M18.4999 45.6333C24.9708 45.6333 30.2165 40.3876 30.2165 33.9167C30.2165 27.4457 24.9708 22.2 18.4999 22.2C12.0289 22.2 6.7832 27.4457 6.7832 33.9167C6.7832 40.3876 12.0289 45.6333 18.4999 45.6333Z" fill="white"/>
</g>
</svg>
