<svg width="37" height="37" viewBox="0 0 37 37" fill="none" xmlns="http://www.w3.org/2000/svg">
<path d="M18.5 35.7666C28.0361 35.7666 35.7667 28.0361 35.7667 18.4999C35.7667 8.96383 28.0361 1.23328 18.5 1.23328C8.96389 1.23328 1.23334 8.96383 1.23334 18.4999C1.23334 28.0361 8.96389 35.7666 18.5 35.7666Z" fill="#8828C9"/>
<path d="M18.5 20.3501C21.9058 20.3501 24.6667 17.5891 24.6667 14.1834C24.6667 10.7776 21.9058 8.01672 18.5 8.01672C15.0943 8.01672 12.3333 10.7776 12.3333 14.1834C12.3333 17.5891 15.0943 20.3501 18.5 20.3501Z" fill="white"/>
<mask id="mask0_194_44" style="mask-type:luminance" maskUnits="userSpaceOnUse" x="3" y="3" width="31" height="31">
<path d="M18.5 33.9167C27.0144 33.9167 33.9167 27.0144 33.9167 18.5C33.9167 9.98565 27.0144 3.08337 18.5 3.08337C9.98562 3.08337 3.08334 9.98565 3.08334 18.5C3.08334 27.0144 9.98562 33.9167 18.5 33.9167Z" fill="white"/>
</mask>
<g mask="url(#mask0_194_44)">
<path d="M18.5 45.6334C24.971 45.6334 30.2167 40.3877 30.2167 33.9167C30.2167 27.4458 24.971 22.2001 18.5 22.2001C12.0291 22.2001 6.78336 27.4458 6.78336 33.9167C6.78336 40.3877 12.0291 45.6334 18.5 45.6334Z" fill="white"/>
</g>
</svg>
