<svg width="37" height="37" viewBox="0 0 37 37" fill="none" xmlns="http://www.w3.org/2000/svg">
<path d="M18.5 35.7667C28.0361 35.7667 35.7667 28.0361 35.7667 18.5C35.7667 8.96389 28.0361 1.23334 18.5 1.23334C8.96388 1.23334 1.23333 8.96389 1.23333 18.5C1.23333 28.0361 8.96388 35.7667 18.5 35.7667Z" fill="#77E5AE"/>
<path d="M18.5 20.35C21.9058 20.35 24.6667 17.5891 24.6667 14.1833C24.6667 10.7776 21.9058 8.01666 18.5 8.01666C15.0942 8.01666 12.3333 10.7776 12.3333 14.1833C12.3333 17.5891 15.0942 20.35 18.5 20.35Z" fill="white"/>
<mask id="mask0_157_32" style="mask-type:luminance" maskUnits="userSpaceOnUse" x="3" y="3" width="31" height="31">
<path d="M18.5 33.9167C27.0144 33.9167 33.9167 27.0144 33.9167 18.5C33.9167 9.98561 27.0144 3.08333 18.5 3.08333C9.98561 3.08333 3.08333 9.98561 3.08333 18.5C3.08333 27.0144 9.98561 33.9167 18.5 33.9167Z" fill="white"/>
</mask>
<g mask="url(#mask0_157_32)">
<path d="M18.5 45.6333C24.9709 45.6333 30.2167 40.3876 30.2167 33.9167C30.2167 27.4457 24.9709 22.2 18.5 22.2C12.0291 22.2 6.78333 27.4457 6.78333 33.9167C6.78333 40.3876 12.0291 45.6333 18.5 45.6333Z" fill="white"/>
</g>
</svg>
