<svg width="12" height="9" viewBox="0 0 12 9" fill="none" xmlns="http://www.w3.org/2000/svg">
<path d="M5.99999 6.42628C7.10414 6.42628 7.99924 5.56391 7.99924 4.50013C7.99924 3.43634 7.10414 2.57397 5.99999 2.57397C4.89583 2.57397 4.00073 3.43634 4.00073 4.50013C4.00073 5.56391 4.89583 6.42628 5.99999 6.42628Z" fill="#717171"/>
<path d="M11.6334 3.25714C10.8582 2.04077 9.09486 0 6 0C2.90514 0 1.14179 2.04077 0.366579 3.25714C-0.122193 4.0188 -0.122193 4.98118 0.366579 5.74286C1.14179 6.95923 2.90514 9 6 9C9.09486 9 10.8582 6.95923 11.6334 5.74286C12.1222 4.98118 12.1222 4.0188 11.6334 3.25714ZM6 7.38923C4.34377 7.38923 3.00111 6.09566 3.00111 4.49999C3.00111 2.90432 4.34377 1.61075 6 1.61075C7.65623 1.61075 8.99889 2.90432 8.99889 4.49999C8.99723 6.09501 7.65555 7.38762 6 7.38923Z" fill="#717171"/>
</svg>
